<svg width="909" height="174" viewBox="0 0 909 174" fill="none" xmlns="http://www.w3.org/2000/svg">
<path d="M329.537 6.20456L321.839 8.76663C318.784 9.9864 316.645 11.3283 315.423 12.792C314.324 14.2558 313.59 16.3914 313.224 19.1971L304.425 82.6922C302.837 94.7687 301.186 105.076 299.476 113.616C297.765 122.155 295.809 129.413 293.61 135.39C291.41 141.368 288.661 146.553 285.361 150.944C282.184 155.336 278.213 159.3 273.447 162.838C268.803 166.498 263.182 170.218 256.583 174L253.283 170.34C257.56 165.827 261.165 161.679 264.098 157.898C267.031 154.116 269.476 150.029 271.431 145.638C273.508 141.368 275.341 136.062 276.93 129.719C278.519 123.497 280.045 115.69 281.512 106.297C283.1 96.7814 284.873 85.0093 286.828 70.9806L293.244 23.4056C293.488 21.8199 293.671 20.4169 293.793 19.1971C294.037 17.8553 294.16 16.6962 294.16 15.7203C294.16 14.1344 293.732 12.8531 292.877 11.8772C292.021 10.7794 290.372 9.74244 287.928 8.76663L281.146 6.20456L281.879 1.26447H330.27L329.537 6.20456Z" fill="#29160F"/>
<path fill-rule="evenodd" clip-rule="evenodd" d="M660.55 32.9204C668.126 32.9204 674.115 35.8482 678.514 41.7036C683.035 47.559 685.296 55.4882 685.296 65.4911C685.296 74.2743 683.769 82.4479 680.714 90.0112C677.659 97.5742 673.382 104.283 667.883 110.139C662.506 115.872 656.273 120.386 649.186 123.68C642.098 126.851 634.582 128.438 626.639 128.438C624.562 128.438 622.362 128.254 620.04 127.888C617.841 127.522 615.702 127.034 613.625 126.424L610.876 147.284C610.631 148.992 610.448 150.396 610.326 151.494C610.203 152.713 610.142 153.689 610.142 154.421C610.142 156.739 610.631 158.446 611.609 159.544C612.709 160.642 614.786 161.801 617.841 163.021L625.173 165.765L624.44 170.523H575.131L575.681 165.765L583.563 163.021C586.496 162.045 588.574 160.765 589.796 159.179C591.018 157.715 591.812 155.579 592.179 152.774L606.843 48.8395L605.926 48.1079L587.413 57.989L585.763 53.4142C590.651 48.6568 595.05 44.7533 598.96 41.7036C602.871 38.6539 606.354 36.4581 609.409 35.1162C612.586 33.6524 615.458 32.9204 618.024 32.9204C620.102 32.9204 621.752 33.5301 622.974 34.7499C624.318 35.9698 624.99 37.6783 624.99 39.8741C624.99 40.6059 624.929 41.5207 624.807 42.6184C624.684 43.7162 624.44 45.4851 624.074 47.9247C623.707 50.2424 623.157 53.4752 622.423 57.6227C621.69 61.7702 620.713 67.26 619.491 74.0912L621.14 74.8237C626.884 60.4291 632.994 49.8771 639.471 43.1678C645.948 36.3366 652.974 32.9205 660.55 32.9204ZM653.402 45.7289C650.102 45.7289 646.559 47.6201 642.77 51.4016C639.104 55.1832 635.438 60.368 631.772 66.9553C628.106 73.5426 624.807 81.0447 621.874 89.4618C619.063 97.7569 616.802 106.479 615.092 115.628C617.413 116.848 619.674 117.885 621.874 118.739C624.196 119.471 626.456 120.081 628.655 120.569C633.666 119.837 638.371 117.946 642.77 114.897C647.17 111.725 651.08 107.699 654.501 102.82C657.923 97.9402 660.612 92.3895 662.567 86.1681C664.522 79.9468 665.5 73.3591 665.5 66.4059C665.5 59.9406 664.4 54.878 662.2 51.2184C660.123 47.5589 657.19 45.729 653.402 45.7289Z" fill="#29160F"/>
<path d="M860.668 96.4955C861.503 98.5206 862.13 100.278 862.548 101.767C862.966 103.256 863.353 104.984 863.711 106.949H864.07C864.309 104.984 864.636 103.256 865.054 101.767C865.531 100.278 866.187 98.5205 867.023 96.4955L891.368 35.8285H909L866.665 141.169C861.713 152.248 856.581 160.08 851.27 164.666C846.02 169.253 839.545 170.063 831.848 170.063H817.282L817.324 156.34H829.611C835.04 156.399 839.217 155.97 842.141 152.516C845.065 149.061 848.377 142.866 852.076 133.932L854.762 126.426L818.065 35.8285H836.682L860.668 96.4955Z" fill="#29160F"/>
<path d="M556.265 32.9204C562.008 32.9205 566.408 34.6892 569.463 38.2268C572.518 41.7644 574.045 46.6444 574.045 52.8657C574.045 54.8175 573.923 57.3183 573.679 60.3679C573.434 63.2956 573.006 66.2234 572.395 69.1511L565.064 111.969L565.98 112.884L584.126 103.186L585.96 107.761C578.261 115.08 571.784 120.386 566.529 123.68C561.397 126.973 556.815 128.62 552.782 128.62C550.46 128.62 548.689 127.949 547.466 126.607C546.367 125.387 545.816 123.741 545.816 121.667C545.816 120.813 545.878 119.776 546 118.557C546.122 117.337 546.427 115.262 546.916 112.335L554.431 70.249C554.798 68.0532 555.103 65.8573 555.348 63.6616C555.592 61.4658 555.715 59.6359 555.715 58.1721C555.715 55.0006 555.043 52.5609 553.698 50.8531C552.476 49.1453 550.643 48.291 548.199 48.291C544.167 48.291 540.134 50.1209 536.101 53.7805C532.191 57.4402 528.402 62.686 524.736 69.5174C521.193 76.3486 517.954 84.5828 515.022 94.2196C512.089 103.735 509.584 114.348 507.506 126.059L489.176 128.62L499.075 70.249C499.441 68.0532 499.747 65.8574 499.991 63.6616C500.235 61.4658 500.357 59.6359 500.357 58.1721C500.357 55.0005 499.685 52.5609 498.341 50.8531C497.119 49.1452 495.225 48.291 492.658 48.291C488.748 48.2911 484.776 50.121 480.744 53.7805C476.833 57.4401 473.046 62.6861 469.38 69.5174C465.836 76.3487 462.536 84.5827 459.481 94.2196C456.549 103.735 454.043 114.348 451.965 126.059L433.635 128.62L444.817 49.2058L443.901 48.4741L425.386 58.3552L423.737 53.7805C428.869 48.779 433.391 44.7533 437.302 41.7036C441.212 38.654 444.694 36.4581 447.749 35.1162C450.804 33.6523 453.555 32.9204 455.999 32.9204C458.442 32.9205 460.214 33.6524 461.314 35.1162C462.414 36.458 462.963 38.1047 462.963 40.0563C462.963 40.7882 462.903 41.7648 462.781 42.9846C462.659 44.0825 462.414 45.8513 462.047 48.291C461.68 50.6088 461.131 53.8415 460.398 57.989C459.787 62.1365 458.931 67.5039 457.831 74.0912L459.298 75.0069C465.164 60.4903 471.396 49.8771 477.995 43.1678C484.594 36.3364 492.231 32.9204 500.907 32.9204C506.284 32.9204 510.378 34.5669 513.189 37.8605C516.122 41.1542 517.588 45.4856 517.588 50.8531C517.588 53.0488 517.283 55.9768 516.672 59.6363C516.183 63.1739 515.143 67.992 513.555 74.0912L515.022 75.0059C520.887 60.4897 527.058 49.8771 533.535 43.1678C540.012 36.3364 547.589 32.9204 556.265 32.9204Z" fill="#29160F"/>
<path d="M120.582 96.674C120.582 103.107 121.955 107.604 124.699 110.165C127.504 112.667 131.382 113.917 136.334 113.917C140.63 113.917 144.39 112.667 147.612 110.165C150.894 107.604 153.519 104.328 155.489 100.337V35.8285H174.284V126.605H156.115L155.846 114.632C153.161 118.981 149.522 122.406 144.927 124.907C140.393 127.35 135.082 128.571 128.995 128.571C120.761 128.571 114.168 126.248 109.215 121.602C104.322 116.956 101.876 109.212 101.876 98.371V35.8285H120.582V96.674Z" fill="#29160F"/>
<path d="M402.995 112.152L403.728 112.884L422.242 103.003L424.074 107.578C418.942 112.579 414.421 116.605 410.511 119.654C406.6 122.704 403.117 124.96 400.062 126.424C397.007 127.766 394.258 128.438 391.814 128.438C389.492 128.438 387.719 127.766 386.497 126.424C385.398 124.96 384.848 123.252 384.848 121.301C384.848 120.569 384.909 119.654 385.032 118.557C385.154 117.337 385.398 115.568 385.764 113.25C386.131 110.81 386.62 107.517 387.231 103.369C387.964 99.2215 388.88 93.8533 389.98 87.266L388.514 86.3512C382.649 100.99 376.538 111.664 370.184 118.373C363.951 125.083 356.558 128.438 348.004 128.438C342.138 128.438 337.556 126.668 334.257 123.13C330.957 119.593 329.307 114.775 329.307 108.675C329.307 106.724 329.43 104.283 329.674 101.356C330.041 98.3061 330.468 95.3176 330.957 92.3901L338.289 49.572L337.373 48.8395L319.226 58.3552L317.576 53.9636C322.708 48.9621 327.23 44.9365 331.141 41.8867C335.051 38.8371 338.595 36.5801 341.772 35.1162C344.949 33.6523 347.882 32.9204 350.57 32.9204C352.892 32.9204 354.603 33.5914 355.703 34.9331C356.924 36.2749 357.536 37.9827 357.536 40.0563C357.536 40.9102 357.475 41.9479 357.353 43.1678C357.231 44.3877 356.925 46.4004 356.436 49.2058L348.921 91.2922C348.555 93.3659 348.248 95.5008 348.004 97.6965C347.759 99.8921 347.638 101.722 347.638 103.186C347.638 106.236 348.371 108.675 349.837 110.505C351.426 112.335 353.503 113.25 356.069 113.25C359.98 113.25 363.83 111.42 367.618 107.761C371.406 104.101 375.072 98.8552 378.616 92.0238C382.16 85.1925 385.398 77.0188 388.331 67.5038C391.264 57.8668 393.708 47.132 395.663 35.2993L413.993 32.9204L402.995 112.152Z" fill="#29160F"/>
<path d="M807.411 127.211H788.53V0.603707H807.411V127.211Z" fill="#29160F"/>
<path d="M235.718 33.8665C243.952 33.8665 250.545 36.1898 255.498 40.8358C260.45 45.4818 262.926 53.1953 262.926 63.9763V126.609H244.131V66.6571C244.131 60.1646 242.729 55.5774 239.924 52.897C237.18 50.1572 233.301 48.7871 228.289 48.787C224.053 48.787 220.264 50.0383 216.922 52.54C213.581 54.9821 211.015 58.1984 209.225 62.1891V126.609H190.429V35.8322H208.688L208.777 47.5364H208.956C211.403 43.1882 214.923 39.8225 219.517 37.4399C224.172 35.0574 229.572 33.8665 235.718 33.8665Z" fill="#29160F"/>
<path fill-rule="evenodd" clip-rule="evenodd" d="M51.5539 0C64.2036 1.29932e-05 73.8997 3.42506 80.6422 10.275C87.4444 17.1249 90.8456 26.2381 90.8457 37.6148C90.8457 49.1702 87.355 58.5219 80.374 65.6697C76.8408 69.2871 72.6187 71.987 67.71 73.7737L97.558 126.604H76.078L48.6416 76.3919H19.4224V126.604H0V0H51.5539ZM19.4224 62.4533H48.6001C56.7747 62.4533 62.5925 60.2199 66.0533 55.7527C69.5141 51.2258 71.2445 45.4477 71.2445 38.4191C71.2445 31.3311 69.514 25.6132 66.0533 21.265C62.5926 16.9168 56.7748 14.742 48.6001 14.742H19.4224V62.4533Z" fill="#29160F"/>
<path d="M775.64 15.7249H717.464V55.9312H769.554V70.7625H717.464V126.604H698.041V0H775.64V15.7249Z" fill="#29160F"/>
</svg>
